<svg version="1.1" xmlns="http://www.w3.org/2000/svg" xmlns:xlink="http://www.w3.org/1999/xlink" x="0px" y="0px" viewBox="0 0 122 64" style="enable-background:new 0 0 122 64;" xml:space="preserve">
	<g>
		<polygon points="68.7,25.1 61.5,25.1 61.5,22.6 67.8,22.6 67.8,19 61.5,19 61.5,16.5 68.7,16.5 68.7,13 57,13 57,28.6
		68.7,28.6 	"></polygon>
        <polygon points="51.8,40 46.5,40 46.5,34.2 42,34.2 42,49.7 46.5,49.7 46.5,43.9 51.8,43.9 51.8,49.7 56.3,49.7
		56.3,34.2 51.8,34.2 	"></polygon>
        <path d="M46.5,24h1.3c0.3,0,0.5,0,0.8,0.2c0.2,0.2,0.4,0.4,0.5,0.6l1.6,3.7h4.7l-1.8-4.1c-0.1-0.3-0.3-0.6-0.4-0.8
		c-0.1-0.2-0.3-0.4-0.5-0.5c0.9-0.4,1.6-1.1,2.1-1.8c0.5-0.8,0.8-1.8,0.8-2.7c0.1-1.5-0.4-2.9-1.4-4c-1.1-1.1-2.6-1.6-4.1-1.5h-8
		v15.6h4.5V24z M46.5,16.5H49c1-0.1,1.8,0.6,1.9,1.6c0,0.2,0,0.3,0,0.5c0,0.5-0.2,1.1-0.5,1.5c-0.4,0.4-1,0.6-1.5,0.5h-2.4l0,0V16.5
		z"></path>
        <polygon points="99.2,28.6 99.2,25.1 92.2,25.1 92.2,13 87.7,13 87.7,28.6 87.7,28.6 	"></polygon>
        <path d="M119.6,43c-0.3-0.7-0.8-1.2-1.4-1.6c-0.9-0.6-1.8-1-2.8-1.2c-0.9-0.2-1.5-0.4-1.8-0.5
		c-0.3-0.1-0.6-0.2-0.8-0.4c-0.2-0.2-0.3-0.4-0.3-0.7c0-0.4,0.2-0.8,0.6-0.8c0.6-0.2,1.3-0.2,1.9-0.2c1.4,0,2.8,0.3,4.1,0.8v-3.8
		c-0.7-0.2-1.5-0.4-2.2-0.5c-0.9-0.1-1.7-0.2-2.6-0.2c-1.7-0.1-3.4,0.3-4.8,1.2c-1.1,0.8-1.7,2.1-1.6,3.5c0,0.7,0.1,1.5,0.4,2.1
		c0.3,0.6,0.7,1.1,1.3,1.5c0.8,0.5,1.6,0.9,2.5,1.1c0.2,0.1,0.4,0.1,0.6,0.2c0.8,0.2,1.3,0.4,1.7,0.6c0.3,0.1,0.6,0.3,0.8,0.5
		c0.2,0.2,0.3,0.4,0.3,0.7c0,0.4-0.2,0.8-0.6,0.9c-0.6,0.2-1.2,0.3-1.9,0.2c-0.8,0-1.6-0.1-2.4-0.3c-0.8-0.2-1.6-0.5-2.4-0.8V49
		c0.7,0.3,1.5,0.6,2.4,0.7c1,0.2,2,0.3,3,0.3l0,0c1.7,0.1,3.5-0.3,4.9-1.3c1.1-0.8,1.7-2.1,1.7-3.4C120,44.5,119.9,43.8,119.6,43z"></path>
        <path d="M66.4,33.9c-2.6,0-4.6,0.6-5.9,1.9s-2,3.3-2,6.2c0,2.8,0.7,4.8,2,6.1c1.3,1.3,3.3,1.9,5.9,1.9l0,0
		c2.6,0,4.6-0.6,5.9-1.9s2-3.3,2-6c0-2.8-0.7-4.9-2-6.2C71,34.6,69,33.9,66.4,33.9z M68.9,45.1c-0.6,0.7-1.6,1.1-2.5,1
		c-0.9,0.1-1.9-0.3-2.5-1c-0.6-0.9-0.9-2-0.8-3.1c-0.1-1.1,0.2-2.3,0.8-3.2c1.4-1.3,3.6-1.3,5,0c0.6,1,0.9,2.1,0.8,3.2
		C69.8,43.1,69.5,44.2,68.9,45.1z"></path>
        <polygon class="st0" points="84.2,42.1 80.4,34.2 76,34.2 76,49.7 80.5,49.7 80.5,42 83,47.1 85.4,47.1 87.9,42 87.9,49.7
		92.4,49.7 92.4,34.2 88,34.2 	"></polygon>
        <polygon class="st0" points="95.1,49.7 106.8,49.7 106.8,46.3 99.6,46.3 99.6,43.7 105.9,43.7 105.9,40.2 99.6,40.2 99.6,37.7
		106.8,37.7 106.8,34.2 95.1,34.2 	"></polygon>
        <path class="st0" d="M81.5,28.6h4.7L80.2,13h-4.8l-5.9,15.6h4.7l1.3-3.3h4.7L81.5,28.6z M76.1,22l1.7-4.6l1.7,4.6H76.1z"></path>
        <polygon class="st0" points="2,50 10,58 10,44 4,38 10,32 10,18 2,26 	"></polygon>
        <polygon class="st0" points="26,32 26,2 18,10 18,32 12.2,28.7 20,57.7 29.8,63.3 22.4,35.6 	"></polygon>
	</g>
    <path d="M25,3l1-1L2,12v14L25,3z"></path>
</svg>